<svg xmlns="http://www.w3.org/2000/svg" viewBox="0 0 500 500">
<rect width="500" height="500" fill="white" rx="96" ry="96"/>
  <g fill="#1297e0" stroke="none" transform="matrix(.1 0 0 -.1 0 500)">
    <path d="M2260 4390 c-129 -14 -288 -56 -479 -125 -141 -51 -347 -172 -488 -287 -121 -98 -344 -331 -330 -344 2 -2 56 4 120 15 111 19 158 27 397 71 58 11 132 24 165 29 33 6 94 17 135 25 41 8 140 27 220 41 80 15 190 35 245 45 55 11 165 31 245 45 80 14 190 35 245 45 55 10 152 28 215 39 462 83 561 103 562 115 0 11 -46 38 -172 102 -147 74 -272 117 -465 159 -90 19 -149 24 -325 29 -118 2 -249 1 -290 -4z"/>
    <path d="M3932 3710 c-16 -36 -93 -115 -131 -134 -25 -13 -241 -59 -496 -106 -66 -12 -163 -31 -215 -41 -52 -10 -113 -21 -135 -24 -22 -4 -87 -15 -145 -26 -206 -38 -317 -59 -460 -84 -80 -14 -201 -37 -270 -50 -69 -12 -179 -33 -245 -45 -166 -30 -371 -67 -490 -90 -99 -19 -191 -36 -455 -84 -74 -14 -156 -28 -181 -31 -25 -4 -50 -10 -56 -13 -31 -21 -92 -492 -64 -492 13 0 197 31 391 65 74 13 149 26 165 28 17 2 165 28 330 56 165 29 341 59 390 67 50 7 124 20 165 28 41 8 95 18 120 21 25 3 92 15 150 25 58 11 175 31 260 45 85 14 207 34 270 45 282 48 294 49 338 39 138 -31 232 -141 232 -273 0 -92 -17 -133 -85 -202 -58 -59 -63 -62 -151 -83 -51 -11 -114 -24 -140 -27 -27 -3 -107 -16 -179 -29 -71 -13 -184 -32 -250 -44 -66 -11 -172 -29 -235 -41 -63 -11 -133 -22 -155 -25 -22 -3 -89 -14 -150 -25 -191 -34 -339 -60 -380 -65 -22 -3 -50 -8 -62 -10 -32 -7 -360 -64 -463 -80 -182 -28 -471 -82 -478 -89 -15 -16 146 -367 203 -442 22 -29 27 -31 67 -24 293 50 593 102 633 110 28 6 91 17 140 25 50 8 153 25 230 39 614 109 654 113 740 72 130 -61 199 -221 148 -348 -26 -66 -87 -136 -137 -157 -61 -26 -203 -54 -801 -156 -82 -14 -199 -34 -260 -45 -60 -10 -143 -24 -182 -31 -40 -7 -73 -16 -73 -20 0 -4 23 -22 52 -40 232 -149 486 -248 763 -298 170 -31 529 -21 709 20 374 85 699 269 966 546 105 108 139 150 224 278 233 349 348 806 306 1215 -32 306 -116 563 -269 820 -36 61 -177 260 -184 260 -1 0 -8 -14 -15 -30z"/>
  </g>
</svg>

