<svg xmlns="http://www.w3.org/2000/svg" viewBox="0 0 512 512">
  <path fill="#0B79C2" d="M223.2 24.5c-44.7 6.8-85.4 25-119.2 53.3-14.5 12.1-40 40-37.3 40.9.5.2 39.1-6.7 85.8-15.2 46.8-8.6 87.3-16 90-16.5 2.8-.5 18.7-3.4 35.5-6.5s32.5-6 35-6.4c30.6-5.4 68.7-12.6 69.4-13.2 1.2-1-16.6-11.3-30.4-17.5-17.8-8.1-35.3-13.5-57-17.6-13.9-2.6-57.6-3.4-71.8-1.3M430 108.1c-3.1 6.4-9.8 13.2-16.3 16.3-4.1 2-26.2 6.3-106.7 21.1-139.4 25.4-159.8 29.2-172.5 31.5-6 1.2-32.3 6-58.4 10.8l-47.5 8.7-1.3 5c-2.7 10.8-5.4 29.6-6 42.9l-.6 13.8 2.9-.6c1.6-.3 12.3-2.2 23.9-4.1 44.2-7.5 91.9-15.6 114-19.4 12.7-2.2 36.3-6.2 52.5-9s40.1-6.8 53-9c20.7-3.6 56.5-9.5 62.8-10.5 1.2-.2 4.5.1 7.4.6 19.6 3.6 32.3 22.8 27.4 41.6-1.9 7.4-4.9 12.4-10.6 17.6-6.8 6.1-10.6 7.5-30 10.6-5.1.8-34.2 5.8-96.5 16.4-40.2 6.9-94.6 16.2-132.5 22.6-48.8 8.3-63.2 10.9-63.6 11.2-.4.4 4.8 15.1 8.1 22.8 7.4 17.5 19 37.3 21.4 36.6.9-.3 3.2-.7 5.1-1.1 5.5-.8 53.8-9.2 148-25.6 35.8-6.2 47.9-8 52.6-7.6 12.2.9 23 8.4 28.3 19.7 2.2 4.7 2.6 6.9 2.6 14.5 0 8.4-.2 9.5-3.4 15.3-1.9 3.5-5.3 7.9-7.5 9.9-7.5 6.5-9.5 7.1-54.6 14.8-8.5 1.5-20.2 3.5-26 4.5s-16.1 2.8-23 4-17.2 3-23 4c-5.8 1.1-17.8 3.1-26.8 4.6-8.9 1.5-16.2 3-16.2 3.4 0 1.2 19.3 13.4 30.3 19.1 25.3 13.1 52.5 21.4 81.7 24.9 19.8 2.4 53.7.8 74.3-3.5 75.9-15.8 141-70.4 169.5-142.5 18.5-46.6 21.7-95.6 9.6-145-7.9-31.9-25.4-66.3-47-92.1l-3.1-3.8z"/>
</svg>
