<svg xmlns="http://www.w3.org/2000/svg" viewBox="0 0 600 600"><rect width="600" height="600" fill="#1297e0" rx="100" ry="100"/>
  <path fill="white" d="M291 106.85v46.8h18V60h-18zm78.55-3.1C363 120.1 355.1 139.65 352 147.1l-5.7 13.65 7.95 3.25c4.35 1.75 8.3 2.85 8.7 2.35.45-.45 7.6-17.75 15.85-38.35 8.3-20.65 16-39.7 17.15-42.4s2-4.95 1.85-5.05c-.2-.1-3.65-1.5-7.8-3.1-4.1-1.65-7.75-3.05-8.05-3.2s-5.9 13.1-12.4 29.5M205.2 79.35c-5.35 2.25-7.2 3.5-6.85 4.6.3.85 8.5 20.25 18.3 43.1l17.75 41.55 8.2-3.4 8.25-3.45-2.05-4.6C238.1 132.55 215 77.75 215 77c0-1.5-1.8-1.05-9.8 2.35m-74.95 50.9-6.25 6.3 33 32.95 33 33 6.25-6.25 6.25-6.25-33-33-33.05-33.05zM430.5 157l-33 33 6.25 6.25 6.25 6.25 33-33 33.05-33.05-6.3-6.2-6.3-6.25zm46 58.1c-21.45 9.25-40.4 17.4-42.1 18.1l-3.15 1.3 3.45 8.1 3.45 8.1 29.2-12.4c16.05-6.85 35.25-15 42.65-18.1 7.45-3.05 13.65-5.7 13.85-5.85.8-.5-6.3-16.35-7.3-16.2-.6.05-18.6 7.7-40.05 16.95m-399.2-4.85c-1.75 4.5-3.1 8.3-3 8.4s15.95 6.45 35.2 14.15 38.65 15.55 43.1 17.45l8.15 3.45 3.25-8c3.3-8.1 3.05-10.7-1.2-10.7-.4 0-18.7-7.25-40.55-16.1s-40.2-16.25-40.75-16.45c-.55-.25-2.45 3.3-4.2 7.8M60 300v9h93.5v-18H60zm231 0v9h249v-18H291zm145 54.25c-1.75 4.35-2.85 8.3-2.35 8.7.45.45 17.75 7.55 38.35 15.85 20.65 8.25 39.7 16 42.4 17.15s4.95 2 5 1.85c1.05-2.15 6.45-16.25 6.3-16.4-.1-.1-15.95-6.5-35.2-14.2s-38.65-15.55-43.1-17.45l-8.15-3.45zm-304.5 7.9c-16.5 7.1-35.6 15.2-42.5 18.05-6.85 2.85-12.65 5.3-12.85 5.45-.35.2 5.65 15.35 6.35 16.2.2.15 18.7-7.55 41.15-17.15s41.85-17.75 43.05-18.1c2.2-.7 2.2-.7-1.3-8.85-1.95-4.5-3.6-8.25-3.7-8.3s-13.7 5.65-30.2 12.7m25.25 68.6L124 463.55l6.25 6.2 6.3 6.25 32.95-33 32.95-32.95-5.95-6.05c-3.25-3.3-6.2-6-6.45-6-.3 0-15.3 14.75-33.3 32.75M403.5 404l-5.95 6.05L430.5 443l32.95 33 6.3-6.25 6.25-6.2-32.75-32.8c-18-18-33-32.75-33.3-32.75-.25 0-3.2 2.7-6.45 6m-46.15 30.75-8.2 3.45 2.05 4.65C361.9 467.5 385 522.25 385 523c0 1.4 14.35-3.3 16.8-5.55.3-.2-11.3-27.75-34.95-83.05l-1.35-3.15zm-121.35.5c-3.7 8.75-33.85 84.2-33.7 84.25.1 0 3.8 1.5 8.15 3.25s8.05 3.1 8.15 2.95c.1-.1 6.5-15.95 14.2-35.2s15.55-38.65 17.45-43.1l3.45-8.15-7.65-3.1c-9.15-3.75-8.85-3.75-10.05-.9m55 57.9V540h18v-93.65h-18z"/>
</svg>
