<svg xmlns="http://www.w3.org/2000/svg" width="1200" height="630" viewBox="0 0 1200 630" role="img" aria-labelledby="title description">
  <title id="title">Envoyou — Publishing Intelligence, Redefined</title>
  <desc id="description">Envoyou AI Editorial Intelligence for fact-checked, SEO-ready publishing workflows.</desc>
  <defs>
    <linearGradient id="background" x1="0" y1="0" x2="1" y2="1">
      <stop offset="0" stop-color="#020617"/>
      <stop offset="0.55" stop-color="#0f172a"/>
      <stop offset="1" stop-color="#082f49"/>
    </linearGradient>
    <radialGradient id="glow" cx="0" cy="0" r="1" gradientTransform="translate(930 90) rotate(132) scale(570 460)" gradientUnits="userSpaceOnUse">
      <stop stop-color="#0ea5e9" stop-opacity=".45"/>
      <stop offset="1" stop-color="#0ea5e9" stop-opacity="0"/>
    </radialGradient>
  </defs>
  <rect width="1200" height="630" fill="url(#background)"/>
  <rect width="1200" height="630" fill="url(#glow)"/>
  <g transform="translate(84 78)">
    <rect width="60" height="60" rx="17" fill="#0b79c2"/>
    <path d="M29 10c0 2.7.5 5 1 5 .6 0 1-2.3 1-5 0-2.8-.4-5-1-5-.5 0-1 2.2-1 5m-9-2.3c0 2 3 8.3 4 8.3.6 0 .3-1.6-.5-3.8-1.7-4-3.5-6.3-3.5-4.5M36.6 11c-1.9 4.7-1.9 5-.7 5 .5 0 1.4-1.2 1.9-2.8.5-1.5 1.3-3.5 1.7-4.5.4-.9.3-1.7-.3-1.7-.5 0-1.7 1.8-2.6 4m-23.9 1.8c-.4.5.9 2.3 2.7 4.1 1.9 1.8 3.6 2.9 3.9 2.3.4-.5-.9-2.3-2.7-4.1-1.9-1.8-3.6-2.9-3.9-2.3m30.4 2.6c-1.8 1.9-2.9 3.6-2.3 3.9.5.4 2.3-.9 4.1-2.7 1.8-1.9 2.9-3.6 2.3-3.9-.5-.4-2.3.9-4.1 2.7M7 20.8c0 .8 6.9 4.2 8.5 4.2s0-2-2.2-2.8c-1.6-.5-3.6-1.3-4.5-1.7-1-.4-1.8-.3-1.8.3m40.3.8c-1.8.8-3.3 1.9-3.3 2.4 0 1.1 6.8-1.4 8.5-3.1 1.3-1.3-1.4-1-5.2.7M5 30c0 .5 2.3 1 5 1 2.8 0 5-.5 5-1 0-.6-2.2-1-5-1-2.7 0-5 .4-5 1m24 0c0 .6 5 1 13 1s13-.4 13-1-5-1-13-1-13 .4-13 1m-18 7.1c-2.5 1.2-4 2.3-3.4 2.5 1.5.6 8.4-2.4 8.4-3.6 0-1.3.3-1.3-5 1.1m33-1.2c0 .5 1.2 1.4 2.8 1.9 1.5.5 3.5 1.3 4.5 1.7.9.4 1.7.3 1.7-.3 0-.5-1.8-1.7-4-2.6-4.7-1.9-5-1.9-5-.7m-28.9 7.5c-1.8 1.9-2.9 3.6-2.3 3.9.5.4 2.3-.9 4.1-2.7 1.8-1.9 2.9-3.6 2.3-3.9-.5-.4-2.3.9-4.1 2.7m25.6-2.6c-.4.5.9 2.3 2.7 4.1 1.9 1.8 3.6 2.9 3.9 2.3.4-.5-.9-2.3-2.7-4.1-1.9-1.8-3.6-2.9-3.9-2.3m-18.5 5.9c-.5 1.6-1.3 3.6-1.7 4.5-.4 1-.3 1.8.3 1.8s1.5-1.2 2-2.8c.5-1.5 1.3-3.5 1.7-4.5.4-.9.3-1.7-.3-1.7s-1.5 1.2-2 2.7m14.3 1c1.7 4.1 3.5 6.4 3.5 4.6 0-2-3-8.3-4-8.3-.6 0-.3 1.6.5 3.7M29 50c0 2.7.5 5 1 5 .6 0 1-2.3 1-5 0-2.8-.4-5-1-5-.5 0-1 2.2-1 5" fill="#fff"/>
    <text x="82" y="42" fill="#f8fafc" font-family="Inter, Arial, sans-serif" font-size="32" font-weight="750">ENVOYOU</text>
  </g>
  <text x="84" y="260" fill="#f8fafc" font-family="Inter, Arial, sans-serif" font-size="70" font-weight="800" letter-spacing="-2">
    Publishing Intelligence,
  </text>
  <text x="84" y="342" fill="#38bdf8" font-family="Inter, Arial, sans-serif" font-size="70" font-weight="800" letter-spacing="-2">
    Redefined.
  </text>
  <text x="84" y="424" fill="#cbd5e1" font-family="Inter, Arial, sans-serif" font-size="29" font-weight="450">
    Fact-check. Refine. Optimize. Publish.
  </text>
  <g transform="translate(84 500)">
    <rect width="335" height="54" rx="27" fill="#0b79c2"/>
    <text x="28" y="36" fill="#fff" font-family="Inter, Arial, sans-serif" font-size="21" font-weight="700">
      AI Editorial Intelligence
    </text>
  </g>
</svg>